PathFileType	4	(X/Y/Z)	T1_P2_Vision_Movement_0_0-735.trc
DataRate	CameraRate	NumFrames	NumMarkers	Units	OrigDataRate	OrigDataStartFrame	OrigNumFrames
60	60	4	27	m	60	459	735
Frame#	Time	RHip			RKnee			RAnkle			RBigToe			RSmallToe			RHeel			LHip			LKnee			LAnkle			LBigToe			LSmallToe			LHeel			Neck			Head			Nose			RShoulder			RElbow			RWrist			RThumb			RIndex			RPinky			LShoulder			LElbow			LWrist			LThumb			LIndex			LPinky		
		X1	Y1	Z1	X2	Y2	Z2	X3	Y3	Z3	X4	Y4	Z4	X5	Y5	Z5	X6	Y6	Z6	X7	Y7	Z7	X8	Y8	Z8	X9	Y9	Z9	X10	Y10	Z10	X11	Y11	Z11	X12	Y12	Z12	X13	Y13	Z13	X14	Y14	Z14	X15	Y15	Z15	X16	Y16	Z16	X17	Y17	Z17	X18	Y18	Z18	X19	Y19	Z19	X20	Y20	Z20	X21	Y21	Z21	X22	Y22	Z22	X23	Y23	Z23	X24	Y24	Z24	X25	Y25	Z25	X26	Y26	Z26	X27	Y27	Z27
460	7.666666666666667	450.23431660686094	3651.9538706237845	657.2987334927375	853.7575717719244	3739.4534911136325	680.204896652526	1231.962938406383	3771.054495919582	724.5578967938706	1325.6210424707735	3701.3191104378398	702.7687833995552	1264.9743260145742	3646.0375802102726	573.026811266715	1296.0822961770984	3835.6480125886724	779.1385120856723	472.49446545930283	3615.3296879625964	840.4308156163144	858.348292157663	3604.409729832792	844.7236377221543	1244.2523581082635	3703.2669750531213	877.1104182505851	1286.5109911141215	3505.755117866264	767.4475088072872	1310.5408687206907	3570.596747805712	876.5580211423488	1283.1011543181107	3747.102981220384	883.4660274709082	-117.49798406602055	3646.711529648016	802.2859059666102	-385.21403718507906	3572.4625809071554	790.9008680886855	-241.1556930850374	3443.5668728764645	723.8860028446552	-55.99503227570908	3685.9687890730042	626.5168271230765	159.99846870149617	3630.965472530103	545.8468724551522	29.409374174169866	3332.340525251031	571.7301505632734	-3.973314796332962	3338.3820487372727	747.4445842589109	-1.5914197798140386	3344.2741920025373	767.7770871868479	25.396666577409142	3365.1512241777054	775.2003034935324	-28.968145607616574	3672.624861201907	990.0668576682399	223.15679448982524	3512.4680338625258	912.9947891534431	473.14040650068245	3539.455009379841	945.8720236479667	585.9193065994673	3540.3360218711655	930.1832438631487	609.5733529897334	3486.9627249210134	935.8047025110154	619.0818736406287	3544.129998191451	1043.965692035614
461	7.683333333333334	450.47385446099537	3650.295374959308	656.1295964366172	852.962975088029	3738.8310904061755	680.1207238876564	1230.8710871296882	3769.8654343331946	723.8032171650028	1321.7527012390412	3692.0343658332895	698.0653749025987	1263.368415668774	3644.1044602331585	568.9341043811637	1296.150197707041	3835.77933073859	779.1989336611103	470.70981493788025	3607.7238087454507	837.4312836150821	857.8412530925899	3601.1720248312845	842.34859450976	1244.5122046919519	3702.2003347223413	876.3078715433994	1284.5641745114374	3501.2541418444716	764.9541937537722	1311.861386627849	3571.6438985226214	877.3120586575964	1285.8558618829898	3748.8206577253823	884.5516850465087	-117.76312448456761	3646.786304633216	802.167491501703	-384.96277524708205	3568.7451150761926	787.0920105007666	-241.16415155119972	3443.7272229905193	723.9670616624303	-57.66858579968805	3688.9651701978974	628.6576056874969	159.77729825226686	3630.5867727892537	545.4700391766162	29.840821180825742	3354.2671638065594	591.7821194844316	-3.425916724400888	3345.2058559879556	755.8249806490062	-1.3514073254493149	3360.116651048792	780.9090315528636	23.94708796215166	3372.7055709718998	783.1461604224309	-28.95907486630635	3672.644464024434	990.0316574436224	224.05789876557893	3511.179274500909	911.998706045074	472.3822565078873	3538.47566912075	945.1246361112295	585.8317861952071	3540.068265196772	929.9144241347097	605.4054434508696	3472.417651782849	921.6572867684333	616.4653589775688	3533.0607280075483	1036.7779196887916
462	7.7	450.32309819620576	3649.5543833521724	655.610064029797	852.0869300565157	3738.954438832154	681.154928322245	1228.7251253438274	3767.6020954626274	722.3643297611704	1317.944453600413	3682.83939963598	693.4694232569387	1261.767170042122	3640.896237323783	565.6515459901912	1296.4586002420767	3836.1793036842146	779.4177634820958	467.07505505972546	3592.226288431715	827.3572039149265	856.584194752183	3598.7832772555803	840.385262709868	1244.3338030017214	3703.0323618177326	876.9192611840924	1284.8366776262778	3501.907894052188	765.2748014124221	1314.0132855396403	3573.4651222912926	878.6598611612977	1285.0878206669381	3746.2321300596614	883.5584375753606	-118.59502438872767	3647.988520712295	803.0203085350227	-385.23131731572954	3573.9180887982557	791.0121845953113	-241.15443269385003	3443.819152205294	723.9895059678622	-59.88734770671526	3692.7492482818225	631.3588763315925	158.96815167963615	3629.509701582974	544.8072911717461	28.3871351192323	3373.5579981428145	610.97224964165	-2.33732831339334	3354.4005736127606	766.7625553856712	-0.3340902250948513	3372.8392869144095	793.6163150002658	21.945234522018094	3377.309678131305	788.0457489763461	-29.01593296080554	3672.753157025588	990.115961784364	224.589575666755	3510.3757332870664	911.3903029102222	471.88992109599315	3537.553461297265	944.3206504478419	585.085969188731	3536.511333999383	927.7702530791079	604.5171747026723	3468.78519565203	918.6791928764723	615.4984286585656	3528.96974551602	1033.8678735729884
463	7.716666666666667	450.7162894154195	3648.3783926754327	654.7768726864755	854.233944500564	3744.332637741801	686.8142367172559	1227.3683013786422	3766.2398693709456	721.5462645312045	1316.252875067899	3678.688571856619	691.5059279593784	1261.6446004792788	3638.2062653700636	565.6264815122362	1297.587682076199	3837.49649817135	780.2580517815077	465.0388671208155	3577.3911936586387	815.8718488553054	856.5131894050232	3599.132413412325	840.4620839291699	1243.9688463549458	3704.918955986729	878.3589738441542	1286.8025389974935	3506.5601143931353	767.7539361320066	1315.3229334391622	3574.72765199667	879.6553308059669	1284.8465541658015	3746.5437096201094	884.3750994762386	-120.23530114350044	3651.0794191355717	805.5378383719749	-386.00683950293785	3588.1879477468615	801.5360843579203	-241.16930758780342	3443.7651676406695	723.8805134876613	-61.58871043581925	3695.5780055886835	633.3894705083902	156.94768711703452	3626.5255883627156	543.0464741741514	24.211281790972627	3373.9293832748735	614.9427127785634	-1.6647310699730986	3359.828899898379	772.872804202053	0.020653629376613913	3372.728858553466	796.4606929277372	19.338588559865364	3376.8566215546257	787.9584417250834	-29.095013164613007	3673.2216950952757	990.5774156876364	224.8241861730964	3509.784927889843	910.8748950814125	473.6720551692231	3539.1656395136297	945.4592738888468	583.2447451744983	3527.6704102926456	922.5560631069832	607.0372879526943	3476.285742728376	927.6451471367969	616.8028829083482	3534.0189215425776	1037.2684095706404
